<svg id="logo" xmlns="http://www.w3.org/2000/svg" xmlns:xlink="http://www.w3.org/1999/xlink" width="283.16" height="113.9" viewBox="0 0 283.16 113.9">
  <defs>
    <linearGradient id="linear-gradient" x1="0.5" y1="0.458" x2="0.5" y2="1.743" gradientUnits="objectBoundingBox">
      <stop offset="0.072" stop-color="#eb6100"/>
      <stop offset="0.145" stop-color="#b63004"/>
      <stop offset="0.223" stop-color="#820009"/>
      <stop offset="0.461" stop-color="#860009"/>
      <stop offset="0.713" stop-color="#820009"/>
      <stop offset="0.744" stop-color="#a31e06"/>
      <stop offset="0.78" stop-color="#c23b03"/>
      <stop offset="0.814" stop-color="#d85001"/>
      <stop offset="0.847" stop-color="#e65c00"/>
      <stop offset="0.876" stop-color="#eb6100"/>
    </linearGradient>
    <linearGradient id="linear-gradient-2" x1="0.5" y1="-1.8" x2="0.5" y2="0.949" xlink:href="#linear-gradient"/>
  </defs>
  <g id="Group_225" data-name="Group 225">
    <path id="Path_900" data-name="Path 900" d="M7.81,111.99a3.632,3.632,0,0,1-3.44,1.91,3.329,3.329,0,0,1-2.49-.96v.75H.01v-4.78H1.88c.05,1.93.73,3.19,2.35,3.19a1.7,1.7,0,0,0,1.46-.54,1.868,1.868,0,0,0,.47-1.34c0-1.11-.64-1.43-1.51-1.8l-1.87-.76C1.18,107.01,0,106.3,0,104.28a3.234,3.234,0,0,1,.62-2.16,3.591,3.591,0,0,1,3.18-1.49,3.337,3.337,0,0,1,2.33.76v-.57H8v4.64H6.13c-.07-1.93-.53-3.09-2.22-3.09a1.669,1.669,0,0,0-1.78,1.72,1.577,1.577,0,0,0,.49,1.13,5,5,0,0,0,1.2.61l1.51.59a4.979,4.979,0,0,1,2.09,1.22,3.526,3.526,0,0,1,.85,2.43A3.465,3.465,0,0,1,7.81,111.99Z" fill="#fff"/>
    <path id="Path_901" data-name="Path 901" d="M34.08,113.67H29.17v-1.76h1.49l-.8-2.27H25.44l-.78,2.27h1.49v1.76H21.4v-1.76h1.13l4.15-11.1h2.11l4.07,11.1h1.22v1.76Zm-4.86-5.83-1.53-4.49-1.56,4.49Z" fill="#fff"/>
    <path id="Path_902" data-name="Path 902" d="M57.07,102.59H56l-3.95,11.08H50.03l-3.88-11.08H45.13v-1.78h4.84v1.78H48.33l2.78,8.35,2.84-8.35H52.33v-1.78h4.73v1.78Z" fill="#fff"/>
    <path id="Path_903" data-name="Path 903" d="M79.91,113.67H69.92v-1.76h1.67v-9.32H69.92v-1.78h9.99v4.3H78.02v-2.52H73.64v3.69h1.8v-1.87h1.8v5.45h-1.8v-1.83h-1.8v3.9h4.38v-2.67h1.89Z" fill="#fff"/>
    <path id="Path_904" data-name="Path 904" d="M122.45,109.85a7.167,7.167,0,0,1-1.02,2.14,5.237,5.237,0,0,1-4.27,1.91c-3.75,0-5.86-2.77-5.86-6.46a7.425,7.425,0,0,1,1.44-4.83,5.363,5.363,0,0,1,4.38-1.97,5.263,5.263,0,0,1,4.37,2.02,7.372,7.372,0,0,1,1.31,4.68A7.7,7.7,0,0,1,122.45,109.85Zm-5.38-7.47c-2.69,0-3.56,2.5-3.56,4.87a6.065,6.065,0,0,0,.78,3.42,3.369,3.369,0,0,0,2.86,1.49,3.082,3.082,0,0,0,2.73-1.57,6.252,6.252,0,0,0,.76-3.31C120.64,104.9,119.78,102.38,117.07,102.38Z" fill="#fff"/>
    <path id="Path_905" data-name="Path 905" d="M147.99,102.59h-1.46v5.96a6.129,6.129,0,0,1-.4,2.71,4.866,4.866,0,0,1-1.75,2.04,5.024,5.024,0,0,1-2.4.57,4.528,4.528,0,0,1-3.55-1.62,5.289,5.289,0,0,1-.93-3.61v-6.06h-1.44v-1.76h5.24v1.76h-1.75v6.08a3.855,3.855,0,0,0,.58,2.5,2.293,2.293,0,0,0,1.93.88,2.443,2.443,0,0,0,2.15-1.24,5.269,5.269,0,0,0,.44-2.62v-5.6h-1.71v-1.76h5.04v1.77Z" fill="#fff"/>
    <path id="Path_906" data-name="Path 906" d="M171.58,113.69h-2.87l-1.04-3.86a1.976,1.976,0,0,0-.82-1.39,3.053,3.053,0,0,0-1.09-.13h-1.29v3.63h1.4v1.76h-4.93v-1.76h1.49V102.6h-1.49v-1.78h5.04a5.5,5.5,0,0,1,3.07.57,3.957,3.957,0,0,1-.34,6.19c.44.25.69.76.98,1.83l.67,2.5h1.22Zm-3.82-10.77a2.437,2.437,0,0,0-1.58-.33h-1.71v3.94h1.24a3.247,3.247,0,0,0,1.98-.4,2.063,2.063,0,0,0,.64-1.62A2.121,2.121,0,0,0,167.76,102.92Z" fill="#fff"/>
    <path id="Path_907" data-name="Path 907" d="M209.88,111.99a3.632,3.632,0,0,1-3.44,1.91,3.329,3.329,0,0,1-2.49-.96v.75h-1.87v-4.78h1.87c.05,1.93.73,3.19,2.35,3.19a1.7,1.7,0,0,0,1.46-.54,1.868,1.868,0,0,0,.47-1.34c0-1.11-.64-1.43-1.51-1.8l-1.87-.76c-1.6-.65-2.78-1.36-2.78-3.38a3.234,3.234,0,0,1,.62-2.16,3.591,3.591,0,0,1,3.18-1.49,3.337,3.337,0,0,1,2.33.76v-.57h1.87v4.64H208.2c-.07-1.93-.53-3.09-2.22-3.09a1.669,1.669,0,0,0-1.78,1.72,1.577,1.577,0,0,0,.49,1.13,5,5,0,0,0,1.2.61l1.51.59a4.979,4.979,0,0,1,2.09,1.22,3.526,3.526,0,0,1,.85,2.43A3.465,3.465,0,0,1,209.88,111.99Z" fill="#fff"/>
    <path id="Path_908" data-name="Path 908" d="M235.22,109.85a7.167,7.167,0,0,1-1.02,2.14,5.237,5.237,0,0,1-4.27,1.91c-3.75,0-5.86-2.77-5.86-6.46a7.425,7.425,0,0,1,1.44-4.83,5.363,5.363,0,0,1,4.38-1.97,5.263,5.263,0,0,1,4.37,2.02,7.372,7.372,0,0,1,1.31,4.68A7.974,7.974,0,0,1,235.22,109.85Zm-5.38-7.47c-2.69,0-3.56,2.5-3.56,4.87a6.065,6.065,0,0,0,.78,3.42,3.369,3.369,0,0,0,2.86,1.49,3.082,3.082,0,0,0,2.73-1.57,6.252,6.252,0,0,0,.76-3.31C233.4,104.9,232.55,102.38,229.84,102.38Z" fill="#fff"/>
    <path id="Path_909" data-name="Path 909" d="M260.76,102.59H259.3v5.96a6.129,6.129,0,0,1-.4,2.71,4.866,4.866,0,0,1-1.75,2.04,5.024,5.024,0,0,1-2.4.57,4.528,4.528,0,0,1-3.55-1.62,5.289,5.289,0,0,1-.93-3.61v-6.06h-1.44v-1.76h5.24v1.76h-1.75v6.08a3.855,3.855,0,0,0,.58,2.5,2.28,2.28,0,0,0,1.93.88,2.443,2.443,0,0,0,2.15-1.24,5.269,5.269,0,0,0,.44-2.62v-5.6h-1.71v-1.76h5.04v1.77Z" fill="#fff"/>
    <path id="Path_910" data-name="Path 910" d="M283.15,113.67h-9.51v-1.76h1.69v-9.32h-1.69v-1.78h5.69v1.78h-1.96v9.23h3.84v-2.77h1.95v4.62Z" fill="#fff"/>
  </g>
  <g id="Group_228" data-name="Group 228">
    <g id="Group_226" data-name="Group 226">
      <path id="Path_911" data-name="Path 911" d="M115.093,42.4H129.96c5.535,0,8.555,2.746,8.555,6.667,0,3.4-2.3,5.447-5.272,6.583a.46.46,0,0,0-.042.35,57.66,57.66,0,0,0,7.158,9.542c1.582,1.476,1.853,1.609,4.147,1.869a3.366,3.366,0,0,1-.313,1.567c-2.661.217-7.254,0-9.1-.785a6.742,6.742,0,0,1-2.252-1.823,79,79,0,0,1-5.266-8.144,1.545,1.545,0,0,0-1.306-.786h-1.082c-.091,0-.146.177-.146.259V68.928h-6.475s.089-20.78,0-22.7c-.043-1.175-.492-1.785-1.307-1.958a19.234,19.234,0,0,0-2.293-.393c-.182-.259-.092-1.4.132-1.477m10.361,2.043a.709.709,0,0,0-.363.657v9.94c0,.176.091.348.225.348a12.3,12.3,0,0,0,4.866-.518c1.166-.575,2.024-1.705,2.024-4.452,0-3.62-2.067-6.148-5.536-6.148a4.045,4.045,0,0,0-1.216.173" fill="#fff"/>
      <path id="Path_912" data-name="Path 912" d="M145.3,42.36h15.223c4.009,0,7.027.82,9.459,2.69a12.629,12.629,0,0,1,4.6,9.987,12.949,12.949,0,0,1-4.5,10.326c-3.513,2.914-7.748,3.645-12.615,3.645-2.7,0-8.422-.006-8.422-.006V46.225c-.09-1.128-.316-1.52-1.3-1.869a14.9,14.9,0,0,0-2.524-.279,3.62,3.62,0,0,1,.09-1.7m11.031,23.685a6.473,6.473,0,0,0,3.787,1.173,6.189,6.189,0,0,0,4.956-2.48c1.575-2.091,2.563-4.611,2.563-9.061,0-4.016-1.576-8.023-4.5-10.031a10.031,10.031,0,0,0-5.719-1.526,3.535,3.535,0,0,0-1.49.22.662.662,0,0,0-.313.566V64.665a2.076,2.076,0,0,0,.717,1.4" fill="#fff"/>
      <path id="Path_913" data-name="Path 913" d="M177.476,42.4h10.13V68.8h-6.547V46.1a1.737,1.737,0,0,0-1.153-1.786,17.321,17.321,0,0,0-2.478-.44,2.356,2.356,0,0,1,.048-1.473" fill="#fff"/>
      <path id="Path_914" data-name="Path 914" d="M192.973,42.429h10c-.156,0,14.661,18.237,14.75,18.237V46.795a2.4,2.4,0,0,0-2.138-2.481,19.78,19.78,0,0,0-2.7-.44,2.55,2.55,0,0,1,0-1.445h7.478V69.108h-4.645c-2.7-3.524-15.738-20.133-15.738-20.086V69.108h-2.509v-21.7a2.959,2.959,0,0,0-1.7-2.834,9.227,9.227,0,0,0-2.795-.654,3.315,3.315,0,0,1,0-1.49" fill="#fff"/>
      <path id="Path_915" data-name="Path 915" d="M102.491,42.41H93.025a2.009,2.009,0,0,0-.042,1.455A21.617,21.617,0,0,1,95.6,44.3c1.031.311,1.455.994,1.006,2.24-.129.367-8.86,22.39-8.86,22.39H90.76s2.453-6.674,3.219-8.805a.586.586,0,0,1,.5-.349c.632,0,6.308-.047,7.026,0a.536.536,0,0,1,.452.349c.6,1.531,3.021,8.805,3.021,8.805h7.43Zm-1.666,14.763c-.452.044-5.089.044-5.583,0-.093,0-.136-.128-.093-.3.719-2,1.893-5.631,2.794-8.068,0-.042.135,0,.179,0,.9,2.4,2.388,6.8,2.839,8.153,0,.089-.091.217-.136.217" fill="#fff"/>
      <path id="Path_916" data-name="Path 916" d="M69.356,42.479a2.087,2.087,0,0,0-.048,1.486c1.034.127,3.984.257,4.659.434,1.034.3,1.316,1.132,1.406,2.179.024.653,0,16.736,0,16.736A3.344,3.344,0,0,1,74.294,66a4.555,4.555,0,0,1-3.1.993,8.111,8.111,0,0,1-1.954-.233,10.955,10.955,0,0,1-1.756-.605A9.473,9.473,0,0,1,66,65.316a10.019,10.019,0,0,1-1.138-.89L62.78,66.99q.89.552,1.87,1.1a15.735,15.735,0,0,0,2.1.961,15.363,15.363,0,0,0,2.408.678,14.362,14.362,0,0,0,2.832.258,14.136,14.136,0,0,0,4.41-.616,9.911,9.911,0,0,0,3.391-1.705,7.05,7.05,0,0,0,2.033-2.588A7.835,7.835,0,0,0,82.5,61.8V42.479Z" fill="#fff"/>
    </g>
    <g id="Group_227" data-name="Group 227">
      <path id="Path_917" data-name="Path 917" d="M174.776,19.647c-4.084,4.372-9.066,6.2-13.361,10.143a5.517,5.517,0,0,0-1.01,7.14,5.571,5.571,0,0,1,.907,3.352c-.751-3.219-4.07-3.518-3.592-7.02.9-6.578,9.011-9.316,13.1-15.282,5.4-7.877,2.3-12.92-1.2-13.522a6.793,6.793,0,0,0-8.2,5.127c1.176,2.994,5.415,3.564,6.8,2.315,1.524-1.368.1-3.42-1.964-3.791,2-.084,3.594.574,4.086,2.2.475,1.552-.492,3.229-2.735,3.875a5.228,5.228,0,0,1-6.426-3.192c-.1,2.255,1.44,4.777.75,7.15-.707,2.432-3.171,3.74-4.855,2.768-2.187-1.256-1.338-4.28.739-5.249-.97,1.306-.678,3.056.791,3.317,2.052.358,3.391-2.367,2.377-4.468-1.25-2.59-2.137-5.021-.915-8.024A10.977,10.977,0,0,1,168.564.038c.33-.027.652-.038.971-.038a9.6,9.6,0,0,1,8.807,4.991C181.244,10.3,178.176,16,174.776,19.647ZM164.7,28.811c-4.027,2.215-4.805,6-3.649,8.361-1.237-4.631,4.943-6.214,7.8-7.448,3.154-1.358,3.45-4.523,2.977-6.565C170.856,26.624,168.178,26.894,164.7,28.811Zm.157,4.495a2.338,2.338,0,0,0-1.739.874,4.742,4.742,0,0,0-.358,5.893c.129.217.278.464.428.73.222.07.439.144.652.228a4.744,4.744,0,0,1-.552-3.482c.44-1,1.084-1.632,1.913-1.319.645.241.848,1.27-.308,1.577,1.484.577,3.522-1.067,1.963-3.271A2.485,2.485,0,0,0,164.854,33.306ZM116.812,23.192a1.609,1.609,0,0,1,2.125-1.314,1.473,1.473,0,0,0,1.68,1.547c1.348-.254,1.56-2.121,2.815-2.4.854-.195,1.391.486.825,1.677-.66,1.4-.589,3.969,1.682,4.827a6.851,6.851,0,0,0,5.878-.428c-2.28.64-4.315-1.369-3.088-3.925.74-1.544,1.913-2.271,2.022-4.093A2.941,2.941,0,0,0,129.4,16.1c1.1,1.325.392,4.6-1.479,4.45-1.419-.121-1.419-1.724-1.075-2.6.426-1.1,2.132-2.515.741-4.115,0-1.207.063-2.529-1.388-3.452a3.194,3.194,0,0,1,.4,2.92c-.4-.744-1.516-1.525-1.99-.722-.523.892.482,2.235.64,2.745.261.849.328,1.913-.355,2.2-.436.176-1.089-.532-1.585-1.352a4.63,4.63,0,0,1-.5-2.695c0-1.5-.355-1.789-.708-1.892a1.312,1.312,0,0,0-1.732,1.016,4.038,4.038,0,0,0-3.309-.848,2.476,2.476,0,0,1,2.295,1.792c-.923-.136-1.725.412-1.61,1.3.1.713.781.944,1.893,1.21a3.115,3.115,0,0,1,2.378,2.356c-1.36-.3-4.031-.036-3.549,2.087A2.326,2.326,0,0,0,116.812,23.192Zm40.322-.087a3.105,3.105,0,0,1-2.676-3.067,4.088,4.088,0,0,1,2.34-3.585c-1.347-.092-3.778-1.6-2.79-3.984.813-1.954-1.606-2.719-1.606-2.719a1.349,1.349,0,0,1-1.424,1.925,1.341,1.341,0,0,0,.14-1.569,3.263,3.263,0,0,0-1.608-1.154c-.032,0-.052.012-.052.033a1.963,1.963,0,0,1-.079,1.121c-.38.925-1.4.925-2.184.925a8.094,8.094,0,0,0-2.034.275l-.4-.112a2.854,2.854,0,0,0-1.765.044c-.471.2-.728.714-1.227.936-.71.3-1.262.229-1.987.551-.723.234-1.936,1.748-.473,1.884a2.177,2.177,0,0,0,.152.858c.089.358-.1.651.176,1.037.057.1.145.148.187.306a3.45,3.45,0,0,0,.02.651.733.733,0,0,0,.231.557.608.608,0,0,0,.349.123.589.589,0,0,1,.452-.649,3.492,3.492,0,0,1,1.893.309,8.98,8.98,0,0,1,1.214.494l.151.177a1.59,1.59,0,0,1,.165.679,1.775,1.775,0,0,1-.818,1.678l-.075-.031a29.286,29.286,0,0,0-3.276-.375,5.8,5.8,0,0,1-3.8-2.993c-.4-.7-1.42-3.2-.475-4.826a3.7,3.7,0,0,0-1.62,2.13,4.576,4.576,0,0,0,3.25,5.868,11.441,11.441,0,0,1,2.518.891,2.665,2.665,0,0,1,.744.722,1.874,1.874,0,0,0-.5,1.1A1.357,1.357,0,0,1,138.883,23a1.252,1.252,0,0,1-.347-1.193,1.766,1.766,0,0,0-.687,2.327,1.748,1.748,0,0,0,1.213.959,1.028,1.028,0,0,1,.723.32.456.456,0,0,1-.145.733,4.043,4.043,0,0,1-2.059.386c-.924-.028-3.382-.408-3.832-1.987-.317-1.1.4-1.919,1.6-1.569a1.761,1.761,0,0,0-1.192-1.553,1.868,1.868,0,0,0-2.173,2.226,3.5,3.5,0,0,0,.537,1.391l0,0a5.038,5.038,0,0,0,2.031,1.706,7.054,7.054,0,0,0,1.644.545c.123.033.321.1.273.224-.067.162-.455.186-1.058.283l-.058.012c-2.494.311-3.812,1.892-5.519,3.173h0a7.943,7.943,0,0,1-5.581,1.246,18.553,18.553,0,0,0-2.86-.16l.043.019a5.33,5.33,0,0,0-.752.056,4.3,4.3,0,0,0-2.626,1.79c-.266.429-.688.221-1.06-.383-.5-.811-.5-3.274-2.3-3.189a2.736,2.736,0,0,0-1.991-1.66,1.777,1.777,0,0,0-.655.035,1.962,1.962,0,0,1,1.564,1.724c-.572.149-.806,1.012-.1,1.689s.77.843.529,1.222c-.121.182-.574.065-1.091-.06a3.275,3.275,0,0,0-1.322-.153.883.883,0,0,0-.555,1.448,1.829,1.829,0,0,0-1.356,1.761,1.775,1.775,0,0,1,1.866-.835.821.821,0,0,1,.638,1.108,1.017,1.017,0,0,0,.832,1.207c.615.082.772-.755,1.719-1.067.608-.2,1.237-.3,1.555.1.236.293.039.855-1.1,1.054-.931.166-1.848.739-1.068,1.872a2.528,2.528,0,0,0-.2,2.262c-.006-.658.5-1.586,1.014-1.537.645.056.6.343,1.141.515.678.215,1.776.246,2.552-2.043.638-1.882,1.067-3.452,2.675-4.591a5.956,5.956,0,0,1,3.509-.916,7.777,7.777,0,0,0,4.281-.77,8.027,8.027,0,0,0,1.742-1.489l.017,0a7.278,7.278,0,0,1,5.041-2.754c.11-.008.221-.014.339-.015a.81.81,0,0,1,.418.122c.153.11.128.346.013.542a8.52,8.52,0,0,1-3.624,2.9c-4.377,2.16-5.532,4.16-5.063,7.34a4.133,4.133,0,0,1,1.018-2.445,5.069,5.069,0,0,1,2.907-1.464,10.584,10.584,0,0,0,5.678-2.068c-1.518,3.251-2.35,8.048.346,10.517,2.236,2.047,3.445,3.681,2.736,6.159.844-.7,1.443-3.283.5-4.463-2.537-3.175,2.1-10.115,4.6-12.195-1.205,3.545,1.964,4.16,2.957,4.376,2.967.635,1.707,2.453.685,3.263,3.881-1.4,3.267-3.98,2.152-5.158a4.282,4.282,0,0,1-.757-5.537c-.262,1.987,1.323,3.36,2.958,3.884,1.52.481,2.541.676,2.754,1.854-.2-2.367-3.313-2.752-3.44-7.177-.071-2.47,1.153-4.088,1.178-5.97C155.006,23.582,156.387,23.992,157.134,23.1Z" fill="url(#linear-gradient)"/>
      <path id="Path_918" data-name="Path 918" d="M139.562,80.452c.787-.955.242-2.1-1.058-2.328A2.776,2.776,0,0,1,136.4,75.3c-.671,2.814-2.614,3.219-4.2,3.85-1.126.449-2.157.873-2.217,2.7-.054,1.581-.592,2.136-1.482,2.2a1.931,1.931,0,0,1-.695-.089,3.185,3.185,0,0,0-.9-.1c-1.381.031-1.3,1.694-.705,2.78a2.59,2.59,0,0,1-.912-2.79c-1.513-.642-1.276-2.315-.077-3.086a1.89,1.89,0,0,0-2.5,1.333c-.352,1.03-1.138,1.267-1.608.617-.338-.466-.08-1.412-.863-1.628s-1.076.843-.553,1.987c-1.1-1.591-.7-2.8.355-3.127-.3-.49-.34-1.194.709-1.349a6.107,6.107,0,0,1,3.133.321c.021-.268-.034-.84-1.06-1.37-.878-.462-1.763-.769-1.86-1.435-.127-.829.5-.964,1.257-.9a1.7,1.7,0,0,0-2.023-1.651,2.363,2.363,0,0,1,3.25,1.054,1.009,1.009,0,0,1,1.434-.362c.384.292.467.778.417,1.578-.048.694.369,1.408,1.238,1.126,1.593-1.495,4.44-.5,5.289-2.759.856-2.32-3.65-2.731-.936-6.39-1.1,2.585,1.463,3.184,3.994,3.382,1.836.135,3.517.449,4.094,1.329.74,1.115-.787,1.72-.667,2.862.093.891.642.931,1.643,1.686A2.064,2.064,0,0,1,139.562,80.452Zm23.713-2.161c.212-1.312.705-3.61-2.319-5.055-2.159-1.026-8.83.577-12.822-2.2-1.456-1.007-1.891-3.7-2.285-5.958.1,2.212-.3,5.431,2.459,7.174,3.986,2.52,9.049,1.472,9.939,3.5.69,1.572-.217,2.9-2.383,3.723a2.865,2.865,0,0,0-1.59,1.7,2.266,2.266,0,0,1-.041-2.073,1.154,1.154,0,0,0-.771-1.685c-.539-.135-.825.191-1.342.65a2.52,2.52,0,0,0-2.8-1.41,2.4,2.4,0,0,1,1.9,1.553c-1.1.114-1.519.994-.695,1.733.57.518,2.1.184,2.5,1.671-1.6-.885-4.033-1.118-3.353.671a2.227,2.227,0,0,0-1.992,2.634c.1-.975.666-1.872,2.251-1.388a1.605,1.605,0,0,0,.6,2.547c.95.412,1.585.194,2.261-.948.225-.388.578-1.158,1.164-1.279-1.037,1.422-.828,2.239-.374,2.714a1.3,1.3,0,0,0,.992.314,1.931,1.931,0,0,0,.735,1.616,1.643,1.643,0,0,1-.106-1.582c.761.559,1.49-.024,1.249-.89s-.187-1.637,1.005-1.608c2.188.053,1.391-1.988,4.973-3.891a2.322,2.322,0,0,0,1.736-1.629A.811.811,0,0,1,163.275,78.291Z" fill="url(#linear-gradient-2)"/>
    </g>
  </g>
</svg>
